<svg xmlns="http://www.w3.org/2000/svg" width="1400" height="600" viewBox="0 0 1400 600" version="1.1">
	<path d="M 0 143.500 C 0 285.776, 0.017 287, 1.977 287 C 4.401 287, 6.457 290.059, 8.023 295.994 C 8.675 298.466, 10.624 302.162, 12.354 304.207 C 14.084 306.253, 17.975 310.867, 21 314.462 C 24.025 318.056, 27.248 321.240, 28.161 321.538 C 29.075 321.835, 31.010 323.636, 32.462 325.539 C 33.914 327.443, 35.719 329, 36.474 329 C 37.229 329, 39.119 330.062, 40.673 331.359 C 45.519 335.404, 49.068 336.674, 63.304 339.458 C 91.266 344.925, 92 344.331, 92 316.221 C 92 295.062, 92.029 295.111, 78.694 293.576 C 72.502 292.863, 59.937 287.451, 58 284.662 C 57.175 283.475, 55.016 281.129, 53.202 279.450 C 50.444 276.897, 49.752 275.343, 48.972 269.949 C 48.434 266.227, 48.032 207.779, 48.020 131.750 L 48 0 24 0 L 0 0 0 143.500 M 945 2.487 C 945 4.286, 943.933 5.648, 941.146 7.408 C 939.026 8.746, 936.340 11.339, 935.177 13.171 C 934.014 15.002, 932.036 17.770, 930.781 19.322 C 928.686 21.914, 928.500 23.135, 928.500 34.322 L 928.500 46.500 933.159 52.500 C 940.629 62.122, 943.725 64.502, 952.503 67.378 C 962.596 70.684, 964.076 70.659, 973.967 67.012 C 985.763 62.663, 991.109 57.079, 995.224 44.809 L 998.283 35.689 995.545 26.094 C 993.251 18.059, 992.132 15.797, 988.653 12.170 C 986.369 9.788, 983.263 7.189, 981.750 6.394 C 979.880 5.411, 979 4.156, 979 2.474 L 979 0 962 0 L 945 0 945 2.487 M 948 88.797 C 943.431 89.338, 939.843 91.284, 938.916 93.721 C 938.380 95.131, 938 145.715, 938 215.665 L 938 335.200 941.400 338.600 C 943.270 340.470, 945.633 342.024, 946.650 342.054 C 947.668 342.084, 955.700 342.200, 964.500 342.312 C 979.661 342.505, 980.614 342.403, 982.684 340.370 C 983.885 339.189, 985.141 336.711, 985.475 334.862 C 985.810 333.013, 985.952 277.628, 985.792 211.786 C 985.520 100.389, 985.381 91.952, 983.789 90.361 C 982.327 88.898, 979.789 88.639, 966.289 88.575 C 957.605 88.534, 949.375 88.633, 948 88.797 M 278.500 89.968 C 277.400 90.458, 273.026 90.891, 268.781 90.930 C 263.201 90.981, 260.014 91.540, 257.281 92.947 C 255.201 94.017, 250.473 95.412, 246.772 96.045 C 242.601 96.760, 238.421 98.265, 235.772 100.008 C 233.423 101.553, 229.700 103.306, 227.500 103.902 C 225.300 104.498, 221.524 106.564, 219.109 108.493 C 216.694 110.422, 214.128 112, 213.406 112 C 212.114 112, 209.166 114.623, 197.109 126.500 C 185.282 138.150, 184 139.527, 184 140.577 C 184 141.160, 182.425 143.406, 180.500 145.568 C 178.570 147.736, 176.341 151.764, 175.531 154.546 C 174.723 157.322, 172.943 160.644, 171.574 161.930 C 169.947 163.459, 168.697 166.211, 167.963 169.884 C 167.345 172.973, 165.419 178.200, 163.684 181.500 L 160.529 187.500 160.515 215.513 L 160.500 243.526 163.717 250.013 C 165.487 253.581, 167.414 259.003, 167.999 262.062 C 168.720 265.829, 170.022 268.673, 172.033 270.875 C 173.667 272.664, 175.503 276.113, 176.114 278.540 C 176.726 280.967, 178.231 283.976, 179.461 285.226 C 180.690 286.477, 182.949 289.412, 184.481 291.750 C 186.013 294.087, 187.650 296, 188.120 296 C 188.590 296, 190.042 297.690, 191.345 299.755 C 192.649 301.820, 194.828 304.105, 196.189 304.833 C 197.549 305.561, 199.404 307.413, 200.311 308.949 C 201.218 310.484, 203.297 312.295, 204.931 312.972 C 206.565 313.648, 208.610 315.282, 209.475 316.602 C 210.340 317.922, 213.849 320.275, 217.274 321.832 C 220.698 323.389, 224.118 325.414, 224.872 326.331 C 225.627 327.249, 226.811 328, 227.502 328 C 228.193 328, 231.851 329.589, 235.630 331.531 C 243.094 335.367, 257.483 339, 265.212 339 C 267.881 339, 271.624 339.652, 273.531 340.448 C 278.775 342.640, 356.716 342.764, 362.500 340.591 C 364.700 339.764, 368.354 339.068, 370.619 339.044 C 378.478 338.960, 392.404 335.953, 396.763 333.399 C 399.115 332.020, 402.961 330.314, 405.310 329.607 C 407.658 328.900, 411.975 326.675, 414.902 324.661 C 417.829 322.647, 420.826 321, 421.561 321 C 422.297 321, 424.100 319.425, 425.568 317.500 C 427.036 315.575, 428.864 314, 429.630 314 C 431.732 314, 446.922 299.074, 449.035 294.932 C 450.052 292.937, 452.013 290.567, 453.391 289.663 C 454.769 288.760, 456.755 286.104, 457.803 283.761 C 458.852 281.417, 460.659 278.657, 461.820 277.627 C 462.980 276.597, 464.616 273.393, 465.455 270.508 C 466.294 267.622, 467.684 264.677, 468.544 263.963 C 471.189 261.768, 471.865 259.663, 473.533 248.436 C 474.418 242.474, 475.831 235.999, 476.674 234.048 C 478.962 228.746, 479.132 207.211, 476.942 200 C 476.024 196.975, 474.458 189.386, 473.463 183.135 C 472.256 175.550, 470.949 170.728, 469.532 168.635 C 468.365 166.911, 466.608 163.475, 465.628 161 C 464.648 158.525, 462.797 155.375, 461.516 154 C 460.235 152.625, 458.467 149.752, 457.588 147.615 C 456.709 145.479, 454.529 142.035, 452.745 139.963 C 450.960 137.891, 446.800 132.972, 443.500 129.032 C 440.200 125.092, 436.150 121.173, 434.500 120.322 C 432.850 119.472, 430.150 117.499, 428.500 115.939 C 426.850 114.378, 423.925 112.443, 422 111.638 C 420.075 110.833, 417.536 109.063, 416.358 107.703 C 415.179 106.344, 411.804 104.434, 408.858 103.458 C 405.911 102.482, 401.925 100.659, 400 99.407 C 398.075 98.156, 393.672 96.629, 390.216 96.015 C 386.759 95.402, 381.857 94.010, 379.322 92.924 C 376.787 91.837, 371.739 90.714, 368.106 90.429 C 355.721 89.458, 280.515 89.071, 278.500 89.968 M 531.571 90.571 C 529.593 92.549, 529.607 92.844, 531.852 96.524 C 532.866 98.187, 534.262 101.263, 534.954 103.360 C 535.646 105.456, 537.516 108.657, 539.110 110.473 C 540.705 112.289, 542.649 115.588, 543.431 117.804 C 544.213 120.021, 546.405 124.091, 548.302 126.849 C 550.200 129.607, 552.035 133.371, 552.380 135.214 C 552.726 137.056, 554.317 139.996, 555.915 141.746 C 557.513 143.496, 559.378 146.614, 560.058 148.676 C 560.739 150.738, 562.517 154.111, 564.010 156.172 C 565.502 158.233, 567.309 161.399, 568.024 163.209 C 568.739 165.019, 570.152 167.430, 571.165 168.567 C 572.177 169.704, 574.108 173.448, 575.455 176.886 C 576.803 180.325, 578.995 183.995, 580.327 185.043 C 581.768 186.176, 583.233 188.884, 583.943 191.724 C 584.600 194.351, 586.214 197.631, 587.530 199.014 C 588.846 200.397, 590.624 203.516, 591.481 205.946 C 592.338 208.375, 594.163 211.835, 595.535 213.635 C 596.908 215.435, 598.933 219.012, 600.036 221.583 C 601.138 224.155, 603.144 227.571, 604.494 229.175 C 605.843 230.779, 607.410 233.810, 607.976 235.911 C 608.542 238.012, 610.329 241.397, 611.947 243.434 C 613.566 245.470, 615.420 248.793, 616.068 250.818 C 616.716 252.843, 618.068 255.405, 619.072 256.510 C 620.076 257.616, 621.993 260.991, 623.332 264.010 C 624.671 267.030, 626.729 270.367, 627.906 271.426 C 629.083 272.485, 630.715 275.652, 631.532 278.463 C 632.349 281.274, 634.350 285.032, 635.978 286.815 C 637.606 288.597, 639.437 291.955, 640.046 294.278 C 640.656 296.600, 642.392 300.075, 643.905 302 C 645.418 303.925, 647.185 307.035, 647.832 308.911 C 648.479 310.787, 650.113 313.771, 651.464 315.542 C 652.815 317.312, 654.998 321.177, 656.315 324.131 C 657.633 327.084, 659.676 330.357, 660.856 331.405 C 662.035 332.453, 663 333.760, 663 334.311 C 663 334.861, 664.148 336.816, 665.551 338.656 L 668.102 342 692.500 342 L 716.898 342 719.449 338.656 C 720.852 336.816, 722 334.861, 722 334.311 C 722 333.760, 722.965 332.453, 724.144 331.405 C 725.324 330.357, 727.367 327.084, 728.685 324.131 C 730.002 321.177, 732.185 317.312, 733.536 315.542 C 734.887 313.771, 736.521 310.787, 737.168 308.911 C 737.815 307.035, 739.582 303.925, 741.095 302 C 742.608 300.075, 744.323 296.679, 744.907 294.452 C 745.490 292.226, 747.283 289.145, 748.890 287.606 C 750.614 285.954, 752.287 282.899, 752.972 280.153 C 753.610 277.594, 755.380 274.150, 756.904 272.500 C 758.428 270.850, 760.467 267.345, 761.435 264.711 C 762.403 262.076, 764.194 258.701, 765.415 257.211 C 766.636 255.720, 768.229 253.019, 768.955 251.209 C 769.682 249.399, 771.498 246.233, 772.990 244.172 C 774.483 242.111, 776.261 238.738, 776.942 236.676 C 777.622 234.614, 779.450 231.536, 781.003 229.835 C 782.556 228.135, 784.315 224.805, 784.912 222.435 C 785.509 220.066, 787.343 216.653, 788.989 214.850 C 790.635 213.048, 792.651 209.274, 793.468 206.463 C 794.285 203.652, 795.917 200.485, 797.094 199.426 C 798.271 198.367, 800.329 195.030, 801.668 192.010 C 803.007 188.991, 804.924 185.616, 805.928 184.510 C 806.932 183.405, 808.284 180.843, 808.932 178.818 C 809.580 176.793, 811.411 173.500, 813 171.500 C 814.589 169.500, 816.424 166.245, 817.077 164.268 C 817.729 162.290, 819.779 158.687, 821.632 156.260 C 823.484 153.833, 825 151.032, 825 150.036 C 825 149.039, 826.608 145.887, 828.574 143.029 C 830.539 140.172, 832.807 135.965, 833.612 133.681 C 834.418 131.397, 836.133 128.397, 837.422 127.014 C 838.711 125.631, 840.741 122.256, 841.932 119.512 C 843.123 116.769, 844.919 113.619, 845.924 112.512 C 846.928 111.406, 848.522 108.124, 849.465 105.219 C 850.409 102.314, 852.266 98.649, 853.591 97.075 C 854.916 95.500, 856 93.579, 856 92.806 C 856 89.281, 854.001 89, 828.955 89 C 801.628 89, 803.189 88.629, 799.480 96 C 798.511 97.925, 796.669 100.758, 795.386 102.295 C 794.102 103.833, 792.579 106.850, 792 109 C 791.421 111.150, 789.843 114.221, 788.494 115.825 C 787.144 117.429, 785.138 120.845, 784.036 123.417 C 782.933 125.988, 780.908 129.565, 779.535 131.365 C 778.163 133.165, 776.338 136.625, 775.481 139.054 C 774.624 141.484, 772.846 144.603, 771.530 145.986 C 770.214 147.369, 768.600 150.649, 767.943 153.276 C 767.233 156.116, 765.768 158.824, 764.327 159.957 C 762.995 161.005, 760.803 164.675, 759.455 168.114 C 758.108 171.552, 756.177 175.296, 755.165 176.433 C 754.152 177.570, 752.721 180.075, 751.983 182 C 751.246 183.925, 749.437 187.075, 747.963 189 C 746.489 190.925, 744.710 194.261, 744.010 196.414 C 743.310 198.566, 741.221 202.313, 739.368 204.740 C 737.516 207.167, 736 209.968, 736 210.964 C 736 211.961, 734.392 215.113, 732.426 217.971 C 730.461 220.828, 728.193 225.035, 727.388 227.319 C 726.582 229.603, 724.846 232.603, 723.530 233.986 C 722.214 235.369, 720.600 238.649, 719.943 241.276 C 719.227 244.143, 717.769 246.824, 716.295 247.982 C 714.945 249.044, 712.941 252.295, 711.841 255.206 C 710.741 258.118, 709.014 261.400, 708.004 262.500 C 706.994 263.600, 705.002 266.975, 703.579 270 C 697.854 282.167, 694.478 287.500, 692.500 287.500 C 690.509 287.500, 687.338 282.466, 681.165 269.500 C 679.593 266.200, 677.588 262.903, 676.709 262.173 C 675.829 261.443, 674.360 258.590, 673.444 255.832 C 672.528 253.074, 670.543 249.396, 669.032 247.659 C 667.522 245.921, 665.707 242.700, 665 240.500 C 664.293 238.300, 662.498 235.101, 661.011 233.391 C 659.525 231.681, 657.807 228.306, 657.194 225.891 C 656.581 223.476, 654.726 220.025, 653.071 218.222 C 651.416 216.420, 649.563 213.045, 648.954 210.722 C 648.344 208.400, 646.594 204.918, 645.065 202.986 C 643.536 201.053, 641.948 198.353, 641.537 196.986 C 641.125 195.618, 639.304 192.250, 637.488 189.500 C 635.673 186.750, 633.683 182.879, 633.065 180.897 C 632.447 178.915, 630.845 176.263, 629.504 175.003 C 628.163 173.744, 626.310 170.415, 625.386 167.606 C 624.462 164.798, 622.691 161.280, 621.451 159.789 C 620.210 158.299, 618.403 154.924, 617.435 152.289 C 616.467 149.655, 614.428 146.150, 612.904 144.500 C 611.380 142.850, 609.610 139.406, 608.972 136.847 C 608.287 134.101, 606.614 131.046, 604.890 129.394 C 603.283 127.855, 601.492 124.827, 600.910 122.666 C 600.328 120.505, 598.310 116.495, 596.426 113.756 C 594.542 111.017, 593 107.971, 593 106.988 C 593 106.005, 591.313 102.929, 589.250 100.152 C 587.188 97.376, 584.733 93.731, 583.797 92.052 L 582.093 89 557.618 89 C 536.701 89, 532.914 89.228, 531.571 90.571 M 1198.500 89.968 C 1197.400 90.458, 1193.026 90.891, 1188.781 90.930 C 1183.201 90.981, 1180.014 91.540, 1177.281 92.947 C 1175.201 94.017, 1170.473 95.412, 1166.772 96.045 C 1162.601 96.760, 1158.421 98.265, 1155.772 100.008 C 1153.423 101.553, 1149.700 103.306, 1147.500 103.902 C 1145.300 104.498, 1141.524 106.564, 1139.109 108.493 C 1136.694 110.422, 1134.128 112, 1133.406 112 C 1132.114 112, 1129.166 114.623, 1117.109 126.500 C 1105.282 138.150, 1104 139.527, 1104 140.577 C 1104 141.160, 1102.481 143.344, 1100.625 145.431 C 1098.768 147.517, 1096.703 151.087, 1096.034 153.362 C 1095.366 155.638, 1093.512 158.869, 1091.914 160.543 C 1089.829 162.727, 1088.706 165.269, 1087.938 169.543 C 1087.349 172.819, 1085.435 178.200, 1083.684 181.500 L 1080.500 187.500 1080.500 215.542 L 1080.500 243.585 1083.306 248.992 C 1084.849 251.966, 1086.769 257.526, 1087.573 261.348 C 1088.677 266.595, 1089.853 269.202, 1092.378 271.996 C 1094.216 274.031, 1096.019 277.289, 1096.385 279.236 C 1096.750 281.183, 1098.094 283.839, 1099.372 285.138 C 1100.650 286.437, 1102.949 289.412, 1104.481 291.750 C 1106.013 294.087, 1107.650 296, 1108.120 296 C 1108.590 296, 1110.042 297.690, 1111.345 299.755 C 1112.649 301.820, 1114.828 304.105, 1116.189 304.833 C 1117.549 305.561, 1119.404 307.413, 1120.311 308.949 C 1121.218 310.484, 1123.297 312.295, 1124.931 312.972 C 1126.565 313.648, 1128.610 315.282, 1129.475 316.602 C 1130.340 317.922, 1133.849 320.275, 1137.274 321.832 C 1140.698 323.389, 1144.118 325.414, 1144.872 326.331 C 1145.627 327.249, 1146.811 328, 1147.502 328 C 1148.193 328, 1151.851 329.589, 1155.630 331.531 C 1163.094 335.367, 1177.483 339, 1185.212 339 C 1187.881 339, 1191.624 339.652, 1193.531 340.448 C 1198.775 342.640, 1276.716 342.764, 1282.500 340.591 C 1284.700 339.764, 1288.354 339.068, 1290.619 339.044 C 1298.478 338.960, 1312.404 335.953, 1316.763 333.399 C 1319.115 332.020, 1322.961 330.314, 1325.310 329.607 C 1327.658 328.900, 1331.975 326.675, 1334.902 324.661 C 1337.829 322.647, 1340.826 321, 1341.561 321 C 1342.297 321, 1344.100 319.425, 1345.568 317.500 C 1347.036 315.575, 1348.864 314, 1349.630 314 C 1351.702 314, 1366.905 299.104, 1368.992 295.029 C 1369.987 293.088, 1372.195 290.474, 1373.900 289.220 C 1375.605 287.966, 1377 286.329, 1377 285.582 C 1377 284.835, 1378.608 281.887, 1380.574 279.029 C 1382.539 276.172, 1384.804 271.972, 1385.607 269.696 C 1386.411 267.419, 1387.925 264.644, 1388.974 263.528 C 1391.435 260.908, 1392.640 255.313, 1393.932 240.500 C 1395.243 225.479, 1395.262 207.044, 1393.983 191.601 C 1392.870 178.172, 1391.689 172.877, 1388.963 169.104 C 1387.929 167.672, 1386.345 164.250, 1385.443 161.500 C 1384.542 158.750, 1382.765 155.375, 1381.495 154 C 1380.225 152.625, 1378.467 149.752, 1377.588 147.615 C 1376.709 145.479, 1374.529 142.035, 1372.745 139.963 C 1370.960 137.891, 1366.800 132.972, 1363.500 129.032 C 1360.200 125.092, 1356.150 121.173, 1354.500 120.322 C 1352.850 119.472, 1350.150 117.499, 1348.500 115.939 C 1346.850 114.378, 1343.925 112.443, 1342 111.638 C 1340.075 110.833, 1337.536 109.063, 1336.358 107.703 C 1335.179 106.344, 1331.804 104.434, 1328.858 103.458 C 1325.911 102.482, 1321.925 100.659, 1320 99.407 C 1318.075 98.156, 1313.672 96.629, 1310.216 96.015 C 1306.759 95.402, 1301.857 94.010, 1299.322 92.924 C 1296.787 91.837, 1291.739 90.714, 1288.106 90.429 C 1275.721 89.458, 1200.515 89.071, 1198.500 89.968 M 275.192 138.109 C 271.173 138.576, 265.773 139.909, 263.192 141.072 C 260.611 142.235, 256.331 143.846, 253.681 144.652 C 251.031 145.459, 246.834 147.667, 244.354 149.559 C 241.875 151.452, 239.457 153, 238.982 153 C 237.473 153, 226.558 163.040, 225.132 165.738 C 224.380 167.162, 222.547 169.352, 221.058 170.604 C 219.570 171.857, 217.786 174.821, 217.094 177.191 C 216.402 179.561, 214.737 183.114, 213.395 185.087 C 209.708 190.505, 208.962 194.183, 208.340 210 C 207.654 227.441, 209.012 238.905, 212.366 243.985 C 213.643 245.918, 215.223 249.129, 215.878 251.120 C 216.533 253.111, 219.079 257.327, 221.535 260.490 C 223.991 263.653, 226 266.851, 226 267.597 C 226 268.343, 227.238 269.730, 228.750 270.679 C 230.262 271.628, 233.368 274.001, 235.651 275.952 C 243.589 282.738, 248.543 285.680, 255.655 287.833 C 259.591 289.025, 263.872 290, 265.170 290 C 266.468 290, 269.209 290.900, 271.261 292 C 274.820 293.907, 276.902 294, 316.246 293.999 C 357.428 293.998, 366.048 293.411, 374.217 290.047 C 375.473 289.530, 379.015 288.417, 382.089 287.573 C 385.162 286.729, 389.387 284.679, 391.476 283.019 C 393.566 281.359, 395.827 280, 396.502 280 C 398.130 280, 416 262.090, 416 260.459 C 416 259.761, 417.526 257.362, 419.392 255.129 C 421.425 252.696, 423.287 248.970, 424.041 245.831 C 424.732 242.950, 426.319 238.322, 427.569 235.546 C 432.026 225.643, 431.698 203.209, 426.959 193.920 C 425.878 191.800, 424.488 187.689, 423.870 184.783 C 423.117 181.242, 421.635 178.263, 419.373 175.747 C 417.518 173.683, 416 171.529, 416 170.960 C 416 169.300, 401.788 154.950, 398.500 153.290 C 396.850 152.458, 394.150 150.515, 392.500 148.973 C 390.850 147.431, 387.478 145.634, 385.006 144.980 C 382.534 144.326, 378.709 142.859, 376.506 141.719 C 369.147 137.912, 358.106 137.035, 319 137.151 C 298.925 137.211, 279.211 137.642, 275.192 138.109 M 1195.223 138.106 C 1190.929 138.605, 1185.121 140.191, 1181.055 141.976 C 1177.265 143.639, 1173.294 145, 1172.230 145 C 1171.166 145, 1168.767 146.124, 1166.898 147.499 C 1165.029 148.873, 1162.203 150.786, 1160.617 151.749 C 1155.776 154.689, 1146.581 162.996, 1145.132 165.738 C 1144.380 167.162, 1142.547 169.352, 1141.058 170.604 C 1139.570 171.857, 1137.786 174.821, 1137.094 177.191 C 1136.402 179.561, 1134.737 183.114, 1133.395 185.087 C 1129.708 190.505, 1128.962 194.183, 1128.340 210 C 1127.654 227.441, 1129.012 238.905, 1132.366 243.985 C 1133.643 245.918, 1135.223 249.129, 1135.878 251.120 C 1136.533 253.111, 1139.079 257.327, 1141.535 260.490 C 1143.991 263.653, 1146 266.851, 1146 267.597 C 1146 268.343, 1147.237 269.730, 1148.750 270.679 C 1150.263 271.628, 1153.368 274.001, 1155.651 275.952 C 1163.589 282.738, 1168.543 285.680, 1175.655 287.833 C 1179.591 289.025, 1183.872 290, 1185.170 290 C 1186.468 290, 1189.209 290.900, 1191.261 292 C 1194.820 293.907, 1196.902 294, 1236.246 293.999 C 1277.428 293.998, 1286.048 293.411, 1294.217 290.047 C 1295.473 289.530, 1299.015 288.417, 1302.089 287.573 C 1305.162 286.729, 1309.387 284.679, 1311.476 283.019 C 1313.566 281.359, 1315.827 280, 1316.502 280 C 1318.130 280, 1336 262.090, 1336 260.459 C 1336 259.761, 1337.526 257.362, 1339.392 255.129 C 1341.425 252.696, 1343.287 248.970, 1344.041 245.831 C 1344.732 242.950, 1346.319 238.322, 1347.569 235.546 C 1352.038 225.617, 1351.697 203.207, 1346.934 193.870 C 1345.838 191.722, 1344.506 187.611, 1343.974 184.733 C 1343.365 181.438, 1342.168 178.759, 1340.743 177.500 C 1339.497 176.400, 1337.290 173.475, 1335.837 171 C 1333.139 166.402, 1319.880 153, 1318.030 153 C 1317.467 153, 1315.314 151.472, 1313.247 149.604 C 1311.180 147.737, 1307.469 145.665, 1305 145 C 1302.531 144.335, 1298.709 142.859, 1296.506 141.719 C 1289.147 137.912, 1278.106 137.035, 1239 137.151 C 1218.925 137.211, 1199.225 137.640, 1195.223 138.106 M 601 466.938 C 597.975 468.024, 592.456 469.962, 588.735 471.246 C 585.015 472.530, 580.977 474.463, 579.762 475.540 C 578.547 476.618, 575.951 478.625, 573.992 480 C 568.625 483.767, 561.428 491.998, 559.564 496.500 C 558.653 498.700, 556.787 502.123, 555.418 504.106 C 553.631 506.693, 552.460 510.596, 551.271 517.921 C 549.834 526.771, 549.778 529.613, 550.853 539.275 C 551.633 546.291, 552.839 551.916, 554.109 554.460 C 558.637 563.532, 561.103 567.466, 564.220 570.592 C 568.340 574.724, 570.276 576.660, 574.408 580.780 C 577.556 583.919, 581.806 586.575, 590.500 590.835 C 595.521 593.295, 613.272 594.436, 627.109 593.188 C 635.601 592.422, 637.170 591.968, 640.609 589.284 C 642.749 587.614, 645.971 585.762, 647.769 585.169 C 651.499 583.939, 663.721 573.418, 664.596 570.684 C 664.915 569.686, 666.542 567.313, 668.211 565.413 C 671.894 561.218, 679.116 540.728, 679.270 534.036 C 679.428 527.186, 677.929 516.768, 676.441 514.377 C 675.715 513.210, 674.380 509.397, 673.475 505.905 C 671.700 499.052, 669.457 495.871, 659.246 485.718 C 648.740 475.273, 645.870 473.039, 641.604 471.982 C 639.347 471.423, 635.068 469.819, 632.096 468.418 C 624.437 464.807, 608.989 464.072, 601 466.938 M 479.366 467.089 C 473.180 468.882, 472.741 470.789, 472.921 495.107 C 473.073 515.844, 472.981 517.019, 471.041 518.959 C 469.082 520.918, 467.871 520.999, 440.750 520.976 C 412.627 520.952, 405.465 520.340, 403.869 517.822 C 403.408 517.095, 403.023 507.050, 403.014 495.500 C 402.999 477.530, 402.745 473.995, 401.248 471.003 C 398.448 465.402, 392.627 465.632, 389.009 471.486 C 386.870 474.947, 386.853 475.397, 386.922 527.237 C 386.960 555.982, 386.993 581.208, 386.996 583.295 C 387.002 588.539, 390.515 592, 395.832 592 C 402.299 592, 402.439 591.490, 403 565.882 C 403.442 545.730, 403.708 542.858, 405.284 541.283 C 406.908 539.661, 409.907 539.474, 438.478 539.210 L 469.887 538.920 471.162 541.210 C 472.042 542.789, 472.603 550.550, 472.969 566.203 C 473.316 581.048, 473.890 589.296, 474.628 590.031 C 476.390 591.789, 483 592.950, 485.605 591.960 C 486.892 591.471, 488.197 590.042, 488.507 588.785 C 488.816 587.528, 488.941 560.248, 488.784 528.161 L 488.500 469.822 486.139 467.911 C 483.524 465.794, 483.742 465.820, 479.366 467.089 M 743.366 467.099 C 739.474 468.214, 737.251 471.480, 736.911 476.583 C 736.767 478.738, 736.729 504.688, 736.825 534.250 C 736.995 586.545, 737.054 588.054, 739 590 C 740.445 591.445, 742.319 591.996, 745.750 591.985 C 755.103 591.955, 755.203 591.537, 754.896 553.940 C 754.759 537.132, 754.992 522.823, 755.413 522.141 C 756.666 520.113, 758.762 522.633, 759.512 527.071 C 759.897 529.347, 761.592 532.716, 763.506 535.007 C 765.527 537.426, 767.248 540.929, 767.893 543.936 C 768.477 546.658, 770.540 551.873, 772.477 555.526 C 774.415 559.178, 776 563.208, 776 564.482 C 776 565.755, 777.392 569.430, 779.094 572.648 C 780.795 575.867, 783.080 580.869, 784.171 583.764 C 786.497 589.937, 789.585 592, 796.500 592 C 803.602 592, 806.651 589.913, 808.463 583.812 C 809.308 580.966, 810 578.111, 810 577.469 C 810 576.826, 811.329 574.465, 812.954 572.222 C 814.579 569.980, 816.640 565.317, 817.536 561.862 C 818.431 558.406, 820.080 554.292, 821.200 552.720 C 822.319 551.147, 824.052 546.686, 825.050 542.806 C 826.178 538.421, 827.833 534.740, 829.423 533.080 C 830.831 531.611, 832.703 528.292, 833.585 525.705 C 835.157 521.090, 837.922 519.272, 838.079 522.750 C 838.122 523.712, 838.091 538, 838.008 554.500 C 837.824 591.471, 837.943 591.955, 847.250 591.985 C 850.681 591.996, 852.555 591.445, 854 590 C 855.946 588.054, 856.005 586.545, 856.175 534.250 C 856.373 473.408, 856.376 473.503, 854.311 470.352 C 852.660 467.833, 846.855 465.756, 844.175 466.727 C 842.269 467.417, 834.896 473.702, 833.724 475.635 C 833.297 476.340, 832.474 479.522, 831.894 482.708 C 831.315 485.894, 829.557 490.525, 827.989 493 C 826.420 495.475, 824.499 500.279, 823.719 503.676 C 822.910 507.205, 821.197 511.166, 819.724 512.916 C 818.208 514.718, 816.662 518.352, 815.972 521.740 C 815.326 524.908, 813.550 529.404, 812.025 531.731 C 810.500 534.057, 808.497 538.972, 807.572 542.653 C 806.648 546.333, 805.056 550.518, 804.034 551.952 C 803.013 553.386, 801.488 557.198, 800.646 560.422 C 799.804 563.646, 798.627 566.773, 798.030 567.370 C 796.135 569.265, 793.583 566.630, 792.273 561.427 C 791.598 558.746, 790.078 555.244, 788.896 553.645 C 787.713 552.046, 785.916 547.417, 784.902 543.359 C 783.888 539.300, 781.923 534.309, 780.536 532.267 C 779.148 530.226, 777.499 525.939, 776.870 522.743 C 776.183 519.255, 774.636 515.559, 773 513.500 C 771.281 511.338, 769.824 507.747, 769.056 503.785 C 768.386 500.328, 766.555 495.475, 764.987 493 C 763.420 490.525, 761.478 485.627, 760.671 482.116 C 759.465 476.859, 758.438 474.979, 754.853 471.465 C 749.909 466.619, 747.817 465.824, 743.366 467.099 M 922.552 468.161 C 920.530 469.798, 920.496 470.693, 920.227 529.189 C 920.008 576.849, 920.212 588.908, 921.263 590.344 C 922.483 592.013, 925.347 592.134, 963.773 592.138 C 986.435 592.140, 1005.844 591.867, 1006.904 591.530 C 1010.820 590.288, 1012.333 580.516, 1009.067 577.561 C 1007.302 575.963, 1004.257 575.823, 973.952 575.945 C 945.397 576.060, 940.437 575.861, 938.385 574.516 C 936.032 572.975, 936 572.734, 936 556.534 C 936 540.699, 936.079 540.058, 938.223 538.557 C 940.106 537.237, 944.729 537, 968.531 537 C 998.050 537, 999.762 536.756, 1000.139 532.500 C 1000.551 527.862, 999.879 524.879, 998 523 C 996.095 521.095, 994.667 521, 968 521 C 933.001 521, 935.710 522.488, 936.174 503.526 C 936.648 484.153, 933.269 485.806, 971.975 486.010 C 989.314 486.101, 1004.251 486.136, 1005.168 486.088 C 1007.356 485.973, 1011 480.004, 1011 476.536 C 1011 473.139, 1008.158 468.185, 1005.776 467.429 C 1004.790 467.116, 986.124 466.779, 964.294 466.680 C 928.623 466.518, 924.396 466.668, 922.552 468.161 M 602 484.941 C 600.075 486.026, 596.250 487.678, 593.500 488.613 C 587.471 490.661, 578.456 498.383, 575.895 503.692 C 574.885 505.786, 573.095 508.687, 571.918 510.137 C 568.756 514.034, 567.335 527.439, 568.777 539.761 C 569.751 548.090, 570.258 549.685, 572.789 552.397 C 574.382 554.104, 576.261 556.965, 576.966 558.755 C 578.408 562.419, 583.690 567.468, 587.184 568.522 C 588.458 568.906, 590.896 570.545, 592.603 572.164 C 595.343 574.763, 596.837 575.240, 605.350 576.236 C 617.445 577.652, 631.118 576.147, 634.996 572.975 C 636.373 571.848, 638.819 570.155, 640.432 569.213 C 642.044 568.271, 644.294 566.475, 645.432 565.223 C 646.569 563.971, 648.986 561.443, 650.802 559.605 C 653.737 556.634, 657.918 547.636, 661.069 537.507 C 662.690 532.295, 662.181 523.810, 660.036 520.292 C 658.960 518.527, 657.324 514.477, 656.401 511.292 C 654.995 506.442, 653.500 504.244, 647.216 497.780 C 642.392 492.817, 638.424 489.653, 636.106 488.920 C 634.123 488.293, 630.925 486.848, 629 485.707 C 623.783 482.618, 606.967 482.140, 602 484.941" stroke="none" fill="#F2EDE4" fill-rule="evenodd"/>
</svg>